<?xml version="1.0" encoding="utf-8"?>
<!-- Generator: Adobe Illustrator 26.0.1, SVG Export Plug-In . SVG Version: 6.00 Build 0)  -->
<svg version="1.1" id="Layer_1" xmlns="http://www.w3.org/2000/svg" xmlns:xlink="http://www.w3.org/1999/xlink" x="0px" y="0px"
	 viewBox="0 0 1080 1080" style="enable-background:new 0 0 1080 1080;" xml:space="preserve">
<style type="text/css">
	.st0{fill:url(#SVGID_1_);}
	.st1{fill:url(#SVGID_00000056396010823638140280000001493085045433169040_);}
	.st2{fill:url(#SVGID_00000160151035273591579350000014572778647633202078_);}
</style>
<g>
	<linearGradient id="SVGID_1_" gradientUnits="userSpaceOnUse" x1="211.4776" y1="188.6737" x2="747.2801" y2="772.6243">
		<stop  offset="0" style="stop-color:#EE9AE5"/>
		<stop  offset="1" style="stop-color:#5961F9"/>
	</linearGradient>
	<path class="st0" d="M962,429.71l-23.43,1.1c10.95,37.43,19.21,83.5,19.21,122.88c0,55.55-10.88,109.43-32.33,160.15
		c-20.72,48.99-50.39,92.99-88.18,130.78c-37.79,37.79-81.79,67.46-130.78,88.18c-50.72,21.45-104.6,32.33-160.15,32.33
		c-55.55,0-109.43-10.88-160.14-32.33c-48.99-20.72-92.99-50.39-130.78-88.18c-37.79-37.79-67.46-81.79-88.18-130.78
		c-21.45-50.72-32.33-104.6-32.33-160.15c0-55.55,10.88-109.43,32.33-160.15c20.72-48.99,50.39-92.99,88.18-130.78
		s81.79-67.46,130.78-88.18c50.72-21.45,104.6-32.33,160.14-32.33c84.61,0,165.88,25.48,235.03,73.69
		c63.11,44,112.11,103.88,142.49,173.89h-22.34h-0.36h-40.4h-88.41H757.2V412h15.15h99.21h29.61h0.36h55.06l-5.85-15.09
		c-31.28-80.63-85.46-149.49-156.68-199.15c-72.88-50.81-158.54-77.67-247.71-77.67c-58.53,0-115.32,11.47-168.78,34.08
		c-51.63,21.84-98,53.1-137.82,92.92c-39.82,39.82-71.08,86.19-92.92,137.82c-22.61,53.46-34.08,110.25-34.08,168.78
		c0,58.53,11.47,115.32,34.08,168.78c21.84,51.63,53.1,98,92.92,137.82c39.82,39.82,86.19,71.08,137.82,92.92
		c53.46,22.61,110.25,34.08,168.78,34.08c58.53,0,115.32-11.47,168.78-34.08c51.63-21.84,98-53.1,137.82-92.92
		c39.82-39.82,71.08-86.19,92.92-137.82c22.61-53.46,34.08-110.25,34.08-168.78C979.94,512.2,973.54,469.16,962,429.71z"/>
	
		<linearGradient id="SVGID_00000150102961845306903850000003475221737897218203_" gradientUnits="userSpaceOnUse" x1="378.7577" y1="35.1863" x2="914.5601" y2="619.1369">
		<stop  offset="0" style="stop-color:#EE9AE5"/>
		<stop  offset="1" style="stop-color:#5961F9"/>
	</linearGradient>
	<path style="fill:url(#SVGID_00000150102961845306903850000003475221737897218203_);" d="M751.57,373.45h-77.06
		c-3.1,0-5.63,2.52-5.63,5.63v40.83c0,3.1,2.53,5.63,5.63,5.63h77.06c2.07,0,3.87-1.13,4.84-2.8c0.32-0.54,0.57-1.14,0.69-1.78
		c0.07-0.34,0.1-0.69,0.1-1.04v-40.83c0-0.16-0.03-0.31-0.04-0.47C756.91,375.72,754.51,373.45,751.57,373.45z"/>
	
		<linearGradient id="SVGID_00000003823233708577355440000002291762483631669679_" gradientUnits="userSpaceOnUse" x1="209.1201" y1="190.8369" x2="744.9225" y2="774.7875">
		<stop  offset="0" style="stop-color:#EE9AE5"/>
		<stop  offset="1" style="stop-color:#5961F9"/>
	</linearGradient>
	<path style="fill:url(#SVGID_00000003823233708577355440000002291762483631669679_);" d="M852.08,374.44
		c-85.17-142.91-265.32-216.52-439.45-149.08c-117.88,45.66-219.27,187.3-224.27,313.62C177.67,809.2,450.09,994.8,700.67,879.39
		C807.98,829.97,883,728.84,898.87,611.76c9.2-67.83,0.27-130.9-21.75-186.44H772.35v4.75c0,3.06-2.48,5.54-5.54,5.54H660.92
		c-3.06,0-5.54-2.48-5.54-5.54V367.2c0-3.06,2.48-5.54,5.54-5.54h105.89c3.06,0,5.54,2.48,5.54,5.54v7.24H852.08z M360.18,783.41
		c-50.32-40.33-81.92-97.84-88.98-161.94l26.87-2.96c6.27,56.92,34.33,107.99,79.01,143.8c44.68,35.81,100.64,52.08,157.55,45.81
		L537.6,835C473.51,842.06,410.5,823.74,360.18,783.41z M341.62,605.41l32.24-3.55c8.95,81.2,82.02,139.77,163.22,130.83l3.55,32.24
		C441.79,775.82,352.51,704.26,341.62,605.41z M657.51,579.19c-5.41,32.46-25.54,60.83-54.39,76.65
		c-86.97,47.71-186.35-22.8-170.04-120.65c5.41-32.46,25.54-60.83,54.39-76.65C574.44,410.82,673.82,481.34,657.51,579.19z"/>
</g>
</svg>
